<svg width="197" height="197" viewBox="0 0 197 197" fill="none" xmlns="http://www.w3.org/2000/svg">
<rect width="197" height="197" rx="12" fill="white"/>
<g filter="url(#filter0_di_9_263)">
<path d="M160.194 33.5872C156.375 29.5624 150.206 29.5624 146.386 33.5872L101.402 80.8971C99.8239 82.5565 97.1776 82.5552 95.6014 80.8941L50.6137 33.484C46.7946 29.4592 40.6252 29.4592 36.806 33.484C32.9869 37.5088 32.9869 44.0104 36.806 48.0352L82.0797 95.7467C83.5442 97.2901 83.5443 99.7099 82.0797 101.253L36.806 148.965C32.9869 152.99 32.9869 159.491 36.806 163.516C40.6252 167.541 46.7946 167.541 50.6137 163.516L95.5985 116.109C97.1758 114.447 99.8243 114.447 101.402 116.109L146.386 163.516C150.206 167.541 156.375 167.541 160.194 163.516C164.013 159.491 164.013 152.99 160.194 148.965L114.92 101.253C113.456 99.7099 113.456 97.2901 114.92 95.7467L160.194 48.0352C163.915 44.1136 163.915 37.5088 160.194 33.5872Z" fill="#60C2AA"/>
<path d="M160.448 33.3463C156.491 29.176 150.09 29.176 146.132 33.3463L101.148 80.6559C99.7083 82.1702 97.2936 82.1689 95.8553 80.6532L50.8676 33.2431C46.9105 29.0728 40.5093 29.0728 36.5521 33.2431C32.6048 37.4029 32.6048 44.1163 36.5521 48.2761L81.8258 95.9876C83.1622 97.396 83.1622 99.6041 81.8258 101.012L36.5521 148.724C32.6048 152.884 32.6048 159.597 36.5521 163.757C40.5093 167.927 46.9105 167.927 50.8676 163.757L95.8524 116.35C97.2916 114.833 99.7085 114.833 101.148 116.35L146.132 163.757C150.09 167.927 156.491 167.927 160.448 163.757C164.395 159.597 164.395 152.884 160.448 148.724L115.174 101.012C113.838 99.6041 113.838 97.396 115.174 95.9876L160.448 48.2761C164.297 44.2195 164.297 37.4029 160.448 33.3463Z" stroke="white" stroke-width="0.7"/>
</g>
<defs>
<filter id="filter0_di_9_263" x="22.2417" y="18.7654" width="154.517" height="161.469" filterUnits="userSpaceOnUse" color-interpolation-filters="sRGB">
<feFlood flood-opacity="0" result="BackgroundImageFix"/>
<feColorMatrix in="SourceAlpha" type="matrix" values="0 0 0 0 0 0 0 0 0 0 0 0 0 0 0 0 0 0 127 0" result="hardAlpha"/>
<feOffset dx="1" dy="1"/>
<feGaussianBlur stdDeviation="6"/>
<feColorMatrix type="matrix" values="0 0 0 0 0.420718 0 0 0 0 0.290978 0 0 0 0 0.338156 0 0 0 0.2 0"/>
<feBlend mode="normal" in2="BackgroundImageFix" result="effect1_dropShadow_9_263"/>
<feBlend mode="normal" in="SourceGraphic" in2="effect1_dropShadow_9_263" result="shape"/>
<feColorMatrix in="SourceAlpha" type="matrix" values="0 0 0 0 0 0 0 0 0 0 0 0 0 0 0 0 0 0 127 0" result="hardAlpha"/>
<feOffset dx="2" dy="2"/>
<feGaussianBlur stdDeviation="5"/>
<feComposite in2="hardAlpha" operator="arithmetic" k2="-1" k3="1"/>
<feColorMatrix type="matrix" values="0 0 0 0 0.311889 0 0 0 0 0.612384 0 0 0 0 0.54168 0 0 0 0.6 0"/>
<feBlend mode="normal" in2="shape" result="effect2_innerShadow_9_263"/>
</filter>
</defs>
</svg>
